<?xml version="1.0" standalone="no"?>
<!DOCTYPE svg PUBLIC "-//W3C//DTD SVG 20010904//EN"
 "http://www.w3.org/TR/2001/REC-SVG-20010904/DTD/svg10.dtd">
<svg version="1.0" xmlns="http://www.w3.org/2000/svg"
 width="512.000000pt" height="512.000000pt" viewBox="0 0 512.000000 512.000000"
 preserveAspectRatio="xMidYMid meet">

<g transform="translate(0.000000,512.000000) scale(0.100000,-0.100000)"
fill="#000000" stroke="none">
<path d="M2065 3240 c-11 -35 12 -50 74 -50 47 0 61 -4 80 -24 l22 -23 -193
-6 c-276 -8 -365 -34 -568 -166 -158 -102 -320 -151 -505 -151 -103 0 -115
-10 -115 -98 0 -34 -4 -62 -9 -62 -5 0 -29 9 -53 20 -25 11 -70 22 -101 26
l-57 7 0 84 c0 76 -2 86 -25 108 l-24 25 -271 0 -271 0 -24 -25 c-25 -24 -25
-27 -25 -194 0 -93 4 -181 9 -194 7 -17 39 -40 111 -76 l101 -52 -3 -47 -3
-47 -55 -2 c-137 -7 -160 -23 -160 -112 0 -43 5 -65 19 -82 18 -22 27 -24 138
-27 l118 -4 27 -38 c37 -54 117 -114 185 -141 44 -17 80 -23 148 -23 104 -1
168 17 246 70 l51 34 1128 0 c1033 0 1129 1 1141 16 8 9 25 38 39 63 23 42 31
48 100 73 41 15 80 27 85 27 6 1 21 -23 34 -51 32 -70 125 -162 196 -194 172
-79 372 -42 494 91 48 53 101 147 101 180 0 25 24 28 112 10 116 -23 113 -21
123 -57 17 -56 32 -58 328 -56 l269 3 19 24 c27 34 27 133 -1 161 -19 19 -33
20 -206 20 l-186 0 -234 77 -234 77 -21 44 c-36 74 -113 148 -197 189 -73 37
-80 38 -181 38 -95 0 -112 -3 -165 -28 -32 -15 -67 -27 -78 -27 -12 0 -76 54
-162 139 -151 148 -177 166 -257 181 -46 9 -91 2 -436 -66 -211 -42 -386 -74
-390 -70 -3 3 -6 20 -6 37 0 45 24 59 104 59 61 0 70 3 88 26 15 18 21 41 21
73 0 67 -17 94 -68 106 -30 8 -58 26 -100 68 l-58 57 -131 0 c-124 0 -132 -1
-138 -20z m1118 -414 c18 -8 54 -37 82 -65 l49 -51 -361 0 c-223 0 -364 4
-368 10 -7 11 -15 9 275 70 263 54 278 56 323 36z m-2398 -237 c59 -28 126
-91 154 -147 11 -21 25 -68 32 -103 14 -80 -5 -170 -53 -240 -133 -196 -420
-198 -552 -6 -128 187 -49 434 164 511 66 24 189 17 255 -15z m3213 -9 c98
-52 152 -127 173 -241 36 -197 -125 -388 -328 -389 -112 0 -216 54 -277 143
-128 187 -49 434 164 511 31 11 69 15 125 13 68 -3 89 -8 143 -37z"/>
<path d="M552 2531 c-221 -76 -230 -392 -14 -487 48 -21 156 -22 203 -2 55 24
110 78 135 133 66 141 -11 316 -157 359 -67 20 -101 20 -167 -3z m144 -152
c29 -14 54 -61 54 -99 0 -50 -55 -100 -110 -100 -34 0 -48 6 -76 34 -39 39
-45 85 -17 126 37 55 88 68 149 39z"/>
<path d="M3752 2531 c-221 -76 -230 -392 -14 -487 48 -21 156 -22 203 -2 55
24 110 78 135 133 66 141 -11 316 -157 359 -67 20 -101 20 -167 -3z m144 -152
c29 -14 54 -61 54 -99 0 -50 -55 -100 -110 -100 -34 0 -48 6 -76 34 -39 39
-45 85 -17 126 37 55 88 68 149 39z"/>
</g>
</svg>
